<?xml version="1.0" encoding="UTF-8"?>
<svg width="492px" height="356px" viewBox="0 0 492 356" version="1.1" xmlns="http://www.w3.org/2000/svg" xmlns:xlink="http://www.w3.org/1999/xlink">
    <!-- Generator: Sketch 62 (91390) - https://sketch.com -->
    <title>logo</title>
    <desc>Created with Sketch.</desc>
    <g id="Page-1" stroke="none" stroke-width="1" fill="none" fill-rule="evenodd">
        <g id="logo" transform="translate(-10.038674, -104.054167)">
            <path d="M153.976627,196.508686 L417.57476,131.08716 C424.007034,129.490756 430.515564,133.411003 432.111968,139.843277 C432.583085,141.741513 432.583085,143.726132 432.111968,145.624368 L366.690442,409.222501 C365.619385,413.538031 362.249855,416.907561 357.934325,417.978618 L94.336192,483.400144 C87.9039179,484.996549 81.3953882,481.076302 79.7989839,474.644028 C79.3278671,472.745792 79.3278671,470.761172 79.7989839,468.862936 L145.22051,205.264803 C146.291567,200.949274 149.661098,197.579743 153.976627,196.508686 Z" id="Rectangle" fill="#48261E" transform="translate(255.955476, 307.243652) rotate(45.000000) translate(-255.955476, -307.243652) "></path>
            <path d="M153.976627,171.530913 L417.57476,106.109387 C424.007034,104.512982 430.515564,108.43323 432.111968,114.865504 C432.583085,116.76374 432.583085,118.748359 432.111968,120.646595 L366.690442,384.244728 C365.619385,388.560257 362.249855,391.929788 357.934325,393.000845 L94.336192,458.422371 C87.9039179,460.018775 81.3953882,456.098528 79.7989839,449.666254 C79.3278671,447.768018 79.3278671,445.783399 79.7989839,443.885163 L145.22051,180.28703 C146.291567,175.971501 149.661098,172.60197 153.976627,171.530913 Z" id="Rectangle" stroke="#48261E" fill="#FFFFFF" transform="translate(255.955476, 282.265879) rotate(45.000000) translate(-255.955476, -282.265879) "></path>
            <path d="M153.976627,145.985463 L417.57476,80.563937 C424.007034,78.9675327 430.515564,82.8877797 432.111968,89.3200537 C432.583085,91.2182897 432.583085,93.202909 432.111968,95.101145 L366.690442,358.699278 C365.619385,363.014808 362.249855,366.384338 357.934325,367.455395 L94.336192,432.876921 C87.9039179,434.473326 81.3953882,430.553079 79.7989839,424.120805 C79.3278671,422.222569 79.3278671,420.237949 79.7989839,418.339713 L145.22051,154.74158 C146.291567,150.426051 149.661098,147.05652 153.976627,145.985463 Z" id="Rectangle" fill="#48261E" transform="translate(255.955476, 256.720429) rotate(45.000000) translate(-255.955476, -256.720429) "></path>
            <polygon id="Path" stroke="#FFFFFF" stroke-width="6" fill="#33140B" fill-rule="nonzero" points="351.864002 315.305091 351.864002 232.074324 308.070787 251.872297 301.949205 152.246009 271.334688 152.246009 265.047143 243.208729 245.801666 251.909196 239.709235 177.548281 209.215983 177.548281 202.903174 243.189049 159.212957 262.940284 159.212957 315.30474 156.038674 315.30474 156.038674 320.80939 355.038674 320.80939 355.038674 315.30474"></polygon>
            <polygon id="Path" fill="#FFFFFF" fill-rule="nonzero" points="333.038342 309.09108 242.7167 309.09108 242.7167 297.038419 189.762783 297.038419 189.762783 309.09108 179.038674 309.09108 179.038674 276.751983 226.908299 255.006573 226.908299 279.111894 279.97332 255.006573 279.97332 279.111894 333.038674 255.006573 333.038674 309.09108"></polygon>
        </g>
    </g>
</svg>